<mxfile host="app.diagrams.net" modified="2021-04-09T14:19:41.420Z" agent="5.0 (Windows NT 10.0; Win64; x64) AppleWebKit/537.36 (KHTML, like Gecko) Chrome/89.0.4389.114 Safari/537.36" etag="_-3sh8CmY1mSIJymJSsH" version="14.5.9" type="github">
  <diagram id="C5RBs43oDa-KdzZeNtuy" name="Page-1">
    <mxGraphModel dx="1231" dy="616" grid="1" gridSize="10" guides="1" tooltips="1" connect="1" arrows="1" fold="1" page="1" pageScale="1" pageWidth="827" pageHeight="1169" math="0" shadow="0">
      <root>
        <mxCell id="WIyWlLk6GJQsqaUBKTNV-0" />
        <mxCell id="WIyWlLk6GJQsqaUBKTNV-1" parent="WIyWlLk6GJQsqaUBKTNV-0" />
        <mxCell id="ZbS1MFmyHcTEgTk42uMY-2" value="end" style="rounded=1;whiteSpace=wrap;html=1;" vertex="1" parent="WIyWlLk6GJQsqaUBKTNV-1">
          <mxGeometry x="120" y="111" width="120" height="60" as="geometry" />
        </mxCell>
        <mxCell id="ZbS1MFmyHcTEgTk42uMY-15" style="edgeStyle=orthogonalEdgeStyle;rounded=0;orthogonalLoop=1;jettySize=auto;html=1;exitX=0.5;exitY=1;exitDx=0;exitDy=0;" edge="1" parent="WIyWlLk6GJQsqaUBKTNV-1" source="ZbS1MFmyHcTEgTk42uMY-3" target="ZbS1MFmyHcTEgTk42uMY-4">
          <mxGeometry relative="1" as="geometry" />
        </mxCell>
        <mxCell id="ZbS1MFmyHcTEgTk42uMY-3" value="start" style="rounded=1;whiteSpace=wrap;html=1;" vertex="1" parent="WIyWlLk6GJQsqaUBKTNV-1">
          <mxGeometry x="360" y="1" width="120" height="60" as="geometry" />
        </mxCell>
        <mxCell id="ZbS1MFmyHcTEgTk42uMY-11" value="EXIT" style="edgeStyle=orthogonalEdgeStyle;rounded=0;orthogonalLoop=1;jettySize=auto;html=1;entryX=1;entryY=0.5;entryDx=0;entryDy=0;fontFamily=Helvetica;" edge="1" parent="WIyWlLk6GJQsqaUBKTNV-1" source="ZbS1MFmyHcTEgTk42uMY-4">
          <mxGeometry relative="1" as="geometry">
            <mxPoint x="240" y="141" as="targetPoint" />
          </mxGeometry>
        </mxCell>
        <mxCell id="ZbS1MFmyHcTEgTk42uMY-14" value="PLAY" style="edgeStyle=orthogonalEdgeStyle;rounded=0;orthogonalLoop=1;jettySize=auto;html=1;exitX=0.5;exitY=1;exitDx=0;exitDy=0;entryX=0.5;entryY=0;entryDx=0;entryDy=0;" edge="1" parent="WIyWlLk6GJQsqaUBKTNV-1" source="ZbS1MFmyHcTEgTk42uMY-4" target="ZbS1MFmyHcTEgTk42uMY-8">
          <mxGeometry relative="1" as="geometry" />
        </mxCell>
        <mxCell id="ZbS1MFmyHcTEgTk42uMY-4" value="menu()" style="rhombus;whiteSpace=wrap;html=1;" vertex="1" parent="WIyWlLk6GJQsqaUBKTNV-1">
          <mxGeometry x="360" y="101" width="120" height="80" as="geometry" />
        </mxCell>
        <mxCell id="ZbS1MFmyHcTEgTk42uMY-27" value="TRUE" style="edgeStyle=orthogonalEdgeStyle;rounded=0;orthogonalLoop=1;jettySize=auto;html=1;exitX=1;exitY=0.5;exitDx=0;exitDy=0;fontFamily=Helvetica;" edge="1" parent="WIyWlLk6GJQsqaUBKTNV-1" source="ZbS1MFmyHcTEgTk42uMY-5">
          <mxGeometry relative="1" as="geometry">
            <mxPoint x="420" y="81" as="targetPoint" />
            <Array as="points">
              <mxPoint x="580" y="461" />
            </Array>
          </mxGeometry>
        </mxCell>
        <mxCell id="ZbS1MFmyHcTEgTk42uMY-28" value="FALSE" style="edgeStyle=orthogonalEdgeStyle;rounded=0;orthogonalLoop=1;jettySize=auto;html=1;exitX=0.5;exitY=1;exitDx=0;exitDy=0;fontFamily=Helvetica;" edge="1" parent="WIyWlLk6GJQsqaUBKTNV-1" source="ZbS1MFmyHcTEgTk42uMY-5">
          <mxGeometry relative="1" as="geometry">
            <mxPoint x="420" y="541" as="targetPoint" />
          </mxGeometry>
        </mxCell>
        <mxCell id="ZbS1MFmyHcTEgTk42uMY-5" value="&lt;span&gt;ProcessCommand()&lt;br&gt;==QUIT&lt;br&gt;&lt;/span&gt;" style="rhombus;whiteSpace=wrap;html=1;" vertex="1" parent="WIyWlLk6GJQsqaUBKTNV-1">
          <mxGeometry x="360" y="421" width="120" height="80" as="geometry" />
        </mxCell>
        <mxCell id="ZbS1MFmyHcTEgTk42uMY-23" style="edgeStyle=orthogonalEdgeStyle;rounded=0;orthogonalLoop=1;jettySize=auto;html=1;exitX=0.5;exitY=1;exitDx=0;exitDy=0;entryX=0.5;entryY=0;entryDx=0;entryDy=0;" edge="1" parent="WIyWlLk6GJQsqaUBKTNV-1" source="ZbS1MFmyHcTEgTk42uMY-8" target="ZbS1MFmyHcTEgTk42uMY-20">
          <mxGeometry relative="1" as="geometry" />
        </mxCell>
        <mxCell id="ZbS1MFmyHcTEgTk42uMY-8" value="GetCommand()" style="rounded=0;whiteSpace=wrap;html=1;" vertex="1" parent="WIyWlLk6GJQsqaUBKTNV-1">
          <mxGeometry x="360" y="221" width="120" height="60" as="geometry" />
        </mxCell>
        <mxCell id="ZbS1MFmyHcTEgTk42uMY-17" style="edgeStyle=orthogonalEdgeStyle;rounded=0;orthogonalLoop=1;jettySize=auto;html=1;exitX=0.5;exitY=1;exitDx=0;exitDy=0;entryX=0.5;entryY=0;entryDx=0;entryDy=0;" edge="1" parent="WIyWlLk6GJQsqaUBKTNV-1" source="ZbS1MFmyHcTEgTk42uMY-20" target="ZbS1MFmyHcTEgTk42uMY-5">
          <mxGeometry relative="1" as="geometry">
            <mxPoint x="420" y="391" as="sourcePoint" />
            <Array as="points" />
          </mxGeometry>
        </mxCell>
        <mxCell id="ZbS1MFmyHcTEgTk42uMY-20" value="ProcessCommand()" style="rounded=0;whiteSpace=wrap;html=1;" vertex="1" parent="WIyWlLk6GJQsqaUBKTNV-1">
          <mxGeometry x="360" y="321" width="120" height="60" as="geometry" />
        </mxCell>
        <mxCell id="ZbS1MFmyHcTEgTk42uMY-25" style="edgeStyle=orthogonalEdgeStyle;rounded=0;orthogonalLoop=1;jettySize=auto;html=1;exitX=0.5;exitY=1;exitDx=0;exitDy=0;" edge="1" parent="WIyWlLk6GJQsqaUBKTNV-1">
          <mxGeometry relative="1" as="geometry">
            <mxPoint x="180" y="171" as="sourcePoint" />
            <mxPoint x="180" y="171" as="targetPoint" />
          </mxGeometry>
        </mxCell>
        <mxCell id="ZbS1MFmyHcTEgTk42uMY-32" value="TRUE" style="edgeStyle=orthogonalEdgeStyle;rounded=0;orthogonalLoop=1;jettySize=auto;html=1;exitX=1;exitY=0.5;exitDx=0;exitDy=0;entryX=1;entryY=0.5;entryDx=0;entryDy=0;fontFamily=Helvetica;" edge="1" parent="WIyWlLk6GJQsqaUBKTNV-1" source="ZbS1MFmyHcTEgTk42uMY-29" target="ZbS1MFmyHcTEgTk42uMY-4">
          <mxGeometry relative="1" as="geometry" />
        </mxCell>
        <mxCell id="ZbS1MFmyHcTEgTk42uMY-29" value="gameover" style="rhombus;whiteSpace=wrap;html=1;fontFamily=Helvetica;" vertex="1" parent="WIyWlLk6GJQsqaUBKTNV-1">
          <mxGeometry x="360" y="541" width="120" height="80" as="geometry" />
        </mxCell>
        <mxCell id="ZbS1MFmyHcTEgTk42uMY-39" value="" style="endArrow=none;html=1;fontFamily=Helvetica;exitX=0;exitY=0.5;exitDx=0;exitDy=0;" edge="1" parent="WIyWlLk6GJQsqaUBKTNV-1" source="ZbS1MFmyHcTEgTk42uMY-29">
          <mxGeometry width="50" height="50" relative="1" as="geometry">
            <mxPoint x="230" y="441" as="sourcePoint" />
            <mxPoint x="320" y="581" as="targetPoint" />
          </mxGeometry>
        </mxCell>
        <mxCell id="ZbS1MFmyHcTEgTk42uMY-40" value="FALSE" style="endArrow=none;html=1;fontFamily=Helvetica;" edge="1" parent="WIyWlLk6GJQsqaUBKTNV-1">
          <mxGeometry width="50" height="50" relative="1" as="geometry">
            <mxPoint x="320" y="581" as="sourcePoint" />
            <mxPoint x="320" y="251" as="targetPoint" />
          </mxGeometry>
        </mxCell>
        <mxCell id="ZbS1MFmyHcTEgTk42uMY-41" value="" style="endArrow=classic;html=1;fontFamily=Helvetica;" edge="1" parent="WIyWlLk6GJQsqaUBKTNV-1" target="ZbS1MFmyHcTEgTk42uMY-8">
          <mxGeometry width="50" height="50" relative="1" as="geometry">
            <mxPoint x="320" y="251" as="sourcePoint" />
            <mxPoint x="280" y="391" as="targetPoint" />
          </mxGeometry>
        </mxCell>
      </root>
    </mxGraphModel>
  </diagram>
</mxfile>
